<svg xmlns="http://www.w3.org/2000/svg" viewBox="0 0 1160 592" font-family="Arial" role="img"><title>CI/CD pipeline — 2 weeks to 3 days</title><defs><marker id="ar" markerWidth="11" markerHeight="11" refX="8" refY="4" orient="auto"><path d="M0 0 L9 4 L0 8 z" fill="#8693A4"/></marker></defs><rect x="2" y="2" width="1156" height="588" rx="18" fill="#FBFCFD" stroke="#E2E7EE" stroke-width="2"/><rect x="2" y="2" width="1156" height="64" rx="18" fill="#232F3E"/><rect x="2" y="40" width="1156" height="26" fill="#232F3E"/><text x="40" y="33" font-size="22" font-weight="700" fill="#fff">CI/CD pipeline — 2 weeks to 3 days</text><text x="40" y="55" font-size="13.5" fill="#C7D0DB">Commit then parallel test/build/scan, Argo CD, production</text><text x="1120" y="33" font-size="13" fill="#FF9900" text-anchor="end" font-weight="700">venkatesh-portfolio-website.vercel.app</text><rect x="40" y="86" width="1080" height="90" rx="13" fill="rgba(24,23,23,0.05)" stroke="rgba(24,23,23,0.18)"/><text x="56" y="105" font-family="Arial" font-size="12" font-weight="700" fill="#181717" letter-spacing="0.6">COMMIT</text><rect x="60.0" y="114" width="1040" height="46" rx="12" fill="#FFFFFF" stroke="#181717" stroke-width="1.6"/><rect x="60.0" y="114" width="6" height="46" rx="3" fill="#181717"/><rect x="80.0" y="115.0" width="44" height="44" rx="9" fill="#181717"/><text x="102.0" y="143.0" font-family="Arial" font-size="18" font-weight="700" fill="#fff" text-anchor="middle">GH</text><text x="126.0" y="134.0" font-family="Arial" font-size="15" font-weight="700" fill="#232F3E">GitHub push / PR</text><text x="126.0" y="153.0" font-family="Arial" font-size="12" fill="#5A6675">small batch, often</text><line x1="580.0" y1="176" x2="580.0" y2="206" stroke="#8693A4" stroke-width="2" marker-end="url(#ar)"/><rect x="519.2" y="180.0" width="121.6" height="20" rx="6" fill="#fff" stroke="#D6DBE2"/><text x="580.0" y="194.5" font-family="Arial" font-size="11.5" fill="#46505E" text-anchor="middle">runs in parallel</text><rect x="40" y="206" width="1080" height="126" rx="13" fill="rgba(230,82,44,0.05)" stroke="rgba(230,82,44,0.18)"/><text x="56" y="225" font-family="Arial" font-size="12" font-weight="700" fill="#E6522C" letter-spacing="0.6">QUALITY GATES (PARALLEL)</text><rect x="60.0" y="234" width="334.6666666666667" height="82" rx="12" fill="#FFFFFF" stroke="#326CE5" stroke-width="1.6"/><rect x="60.0" y="234" width="6" height="82" rx="3" fill="#326CE5"/><rect x="80.0" y="253.0" width="44" height="44" rx="9" fill="#326CE5"/><polygon points="102.0,260.0 113.7,265.6 116.6,278.3 108.5,288.5 95.5,288.5 87.4,278.3 90.3,265.6" fill="none" stroke="#fff" stroke-width="2"/><line x1="102.0" y1="275.0" x2="102.0" y2="264.0" stroke="#fff" stroke-width="1.3"/><line x1="102.0" y1="275.0" x2="110.6" y2="268.1" stroke="#fff" stroke-width="1.3"/><line x1="102.0" y1="275.0" x2="112.7" y2="277.4" stroke="#fff" stroke-width="1.3"/><line x1="102.0" y1="275.0" x2="106.8" y2="284.9" stroke="#fff" stroke-width="1.3"/><line x1="102.0" y1="275.0" x2="97.2" y2="284.9" stroke="#fff" stroke-width="1.3"/><line x1="102.0" y1="275.0" x2="91.3" y2="277.4" stroke="#fff" stroke-width="1.3"/><line x1="102.0" y1="275.0" x2="93.4" y2="268.1" stroke="#fff" stroke-width="1.3"/><circle cx="102.0" cy="275.0" r="4" fill="none" stroke="#fff" stroke-width="2"/><text x="126.0" y="272.0" font-family="Arial" font-size="15" font-weight="700" fill="#232F3E">Tests</text><text x="126.0" y="291.0" font-family="Arial" font-size="12" fill="#5A6675">unit + integration</text><rect x="412.6666666666667" y="234" width="334.6666666666667" height="82" rx="12" fill="#FFFFFF" stroke="#2496ED" stroke-width="1.6"/><rect x="412.6666666666667" y="234" width="6" height="82" rx="3" fill="#2496ED"/><rect x="432.6666666666667" y="253.0" width="44" height="44" rx="9" fill="#2496ED"/><rect x="442.6666666666667" y="267.0" width="5" height="5" fill="#fff"/><rect x="448.6666666666667" y="267.0" width="5" height="5" fill="#fff"/><rect x="454.6666666666667" y="267.0" width="5" height="5" fill="#fff"/><rect x="442.6666666666667" y="273.0" width="5" height="5" fill="#fff"/><rect x="448.6666666666667" y="273.0" width="5" height="5" fill="#fff"/><rect x="454.6666666666667" y="273.0" width="5" height="5" fill="#fff"/><rect x="460.6666666666667" y="273.0" width="5" height="5" fill="#fff"/><path d="M464.6666666666667 271.0 q5 0 5 5" stroke="#fff" stroke-width="2" fill="none"/><text x="478.6666666666667" y="272.0" font-family="Arial" font-size="15" font-weight="700" fill="#232F3E">Build &amp; push</text><text x="478.6666666666667" y="291.0" font-family="Arial" font-size="12" fill="#5A6675">container image</text><rect x="765.3333333333334" y="234" width="334.6666666666667" height="82" rx="12" fill="#FFFFFF" stroke="#E7157B" stroke-width="1.6"/><rect x="765.3333333333334" y="234" width="6" height="82" rx="3" fill="#E7157B"/><rect x="785.3333333333334" y="253.0" width="44" height="44" rx="9" fill="#E7157B"/><path d="M807.3333333333334 261.0 l12 5 v8 c0 7 -6 11 -12 13 c-6 -2 -12 -6 -12 -13 v-8 z" fill="none" stroke="#fff" stroke-width="2"/><path d="M802.3333333333334 275.0 l4 4 7 -8" fill="none" stroke="#fff" stroke-width="2"/><text x="831.3333333333334" y="272.0" font-family="Arial" font-size="15" font-weight="700" fill="#232F3E">SonarCloud + Snyk</text><text x="831.3333333333334" y="291.0" font-family="Arial" font-size="12" fill="#5A6675">security shift-left</text><line x1="580.0" y1="332" x2="580.0" y2="362" stroke="#8693A4" stroke-width="2" marker-end="url(#ar)"/><rect x="509.3" y="336.0" width="141.39999999999998" height="20" rx="6" fill="#fff" stroke="#D6DBE2"/><text x="580.0" y="350.5" font-family="Arial" font-size="11.5" fill="#46505E" text-anchor="middle">image tag committed</text><rect x="40" y="362" width="1080" height="90" rx="13" fill="rgba(239,123,77,0.05)" stroke="rgba(239,123,77,0.18)"/><text x="56" y="381" font-family="Arial" font-size="12" font-weight="700" fill="#EF7B4D" letter-spacing="0.6">DEPLOY</text><rect x="60.0" y="390" width="1040" height="46" rx="12" fill="#FFFFFF" stroke="#EF7B4D" stroke-width="1.6"/><rect x="60.0" y="390" width="6" height="46" rx="3" fill="#EF7B4D"/><rect x="80.0" y="391.0" width="44" height="44" rx="9" fill="#EF7B4D"/><path d="M102.0 400.0 a13 13 0 1 1 -9 22" stroke="#fff" stroke-width="2.4" fill="none"/><path d="M93.0 418.0 l-2 5 6 0 z" fill="#fff"/><circle cx="102.0" cy="413.0" r="3.5" fill="#fff"/><text x="126.0" y="410.0" font-family="Arial" font-size="15" font-weight="700" fill="#232F3E">Argo CD</text><text x="126.0" y="429.0" font-family="Arial" font-size="12" fill="#5A6675">pull-based rollout to prod</text><line x1="580.0" y1="452" x2="580.0" y2="482" stroke="#8693A4" stroke-width="2" marker-end="url(#ar)"/><rect x="40" y="482" width="1080" height="90" rx="13" fill="rgba(6,172,56,0.05)" stroke="rgba(6,172,56,0.18)"/><text x="56" y="501" font-family="Arial" font-size="12" font-weight="700" fill="#06AC38" letter-spacing="0.6">OUTCOME</text><rect x="60.0" y="510" width="1040" height="46" rx="12" fill="#FFFFFF" stroke="#06AC38" stroke-width="1.6"/><rect x="60.0" y="510" width="6" height="46" rx="3" fill="#06AC38"/><rect x="80.0" y="511.0" width="44" height="44" rx="9" fill="#06AC38"/><path d="M102.0 519.0 l12 5 v8 c0 7 -6 11 -12 13 c-6 -2 -12 -6 -12 -13 v-8 z" fill="none" stroke="#fff" stroke-width="2"/><path d="M97.0 533.0 l4 4 7 -8" fill="none" stroke="#fff" stroke-width="2"/><text x="126.0" y="538.0" font-family="Arial" font-size="15" font-weight="700" fill="#232F3E">Release cycle 2 weeks → 3 days (85% faster) · fewer defects</text></svg>