<svg xmlns="http://www.w3.org/2000/svg" viewBox="0 0 1160 524" font-family="Arial" role="img"><title>Zero-downtime releases — blue-green + GitOps</title><defs><marker id="ar" markerWidth="11" markerHeight="11" refX="8" refY="4" orient="auto"><path d="M0 0 L9 4 L0 8 z" fill="#8693A4"/></marker></defs><rect x="2" y="2" width="1156" height="520" rx="18" fill="#FBFCFD" stroke="#E2E7EE" stroke-width="2"/><rect x="2" y="2" width="1156" height="64" rx="18" fill="#232F3E"/><rect x="2" y="40" width="1156" height="26" fill="#232F3E"/><text x="40" y="33" font-size="22" font-weight="700" fill="#fff">Zero-downtime releases — blue-green + GitOps</text><text x="40" y="55" font-size="13.5" fill="#C7D0DB">GitHub then CI image, Argo CD, blue/green on EKS behind an ALB</text><text x="1120" y="33" font-size="13" fill="#FF9900" text-anchor="end" font-weight="700">venkatesh-portfolio-website.vercel.app</text><rect x="40" y="86" width="1080" height="126" rx="13" fill="rgba(24,23,23,0.05)" stroke="rgba(24,23,23,0.18)"/><text x="56" y="105" font-family="Arial" font-size="12" font-weight="700" fill="#181717" letter-spacing="0.6">SOURCE &amp; CI</text><rect x="60.0" y="114" width="334.6666666666667" height="82" rx="12" fill="#FFFFFF" stroke="#181717" stroke-width="1.6"/><rect x="60.0" y="114" width="6" height="82" rx="3" fill="#181717"/><rect x="80.0" y="133.0" width="44" height="44" rx="9" fill="#181717"/><text x="102.0" y="161.0" font-family="Arial" font-size="18" font-weight="700" fill="#fff" text-anchor="middle">GH</text><text x="126.0" y="152.0" font-family="Arial" font-size="15" font-weight="700" fill="#232F3E">GitHub</text><text x="126.0" y="171.0" font-family="Arial" font-size="12" fill="#5A6675">app + manifests</text><rect x="412.6666666666667" y="114" width="334.6666666666667" height="82" rx="12" fill="#FFFFFF" stroke="#2496ED" stroke-width="1.6"/><rect x="412.6666666666667" y="114" width="6" height="82" rx="3" fill="#2496ED"/><rect x="432.6666666666667" y="133.0" width="44" height="44" rx="9" fill="#2496ED"/><rect x="442.6666666666667" y="147.0" width="5" height="5" fill="#fff"/><rect x="448.6666666666667" y="147.0" width="5" height="5" fill="#fff"/><rect x="454.6666666666667" y="147.0" width="5" height="5" fill="#fff"/><rect x="442.6666666666667" y="153.0" width="5" height="5" fill="#fff"/><rect x="448.6666666666667" y="153.0" width="5" height="5" fill="#fff"/><rect x="454.6666666666667" y="153.0" width="5" height="5" fill="#fff"/><rect x="460.6666666666667" y="153.0" width="5" height="5" fill="#fff"/><path d="M464.6666666666667 151.0 q5 0 5 5" stroke="#fff" stroke-width="2" fill="none"/><text x="478.6666666666667" y="152.0" font-family="Arial" font-size="15" font-weight="700" fill="#232F3E">CI build</text><text x="478.6666666666667" y="171.0" font-family="Arial" font-size="12" fill="#5A6675">image + new tag</text><rect x="765.3333333333334" y="114" width="334.6666666666667" height="82" rx="12" fill="#FFFFFF" stroke="#EF7B4D" stroke-width="1.6"/><rect x="765.3333333333334" y="114" width="6" height="82" rx="3" fill="#EF7B4D"/><rect x="785.3333333333334" y="133.0" width="44" height="44" rx="9" fill="#EF7B4D"/><path d="M807.3333333333334 142.0 a13 13 0 1 1 -9 22" stroke="#fff" stroke-width="2.4" fill="none"/><path d="M798.3333333333334 160.0 l-2 5 6 0 z" fill="#fff"/><circle cx="807.3333333333334" cy="155.0" r="3.5" fill="#fff"/><text x="831.3333333333334" y="152.0" font-family="Arial" font-size="15" font-weight="700" fill="#232F3E">Argo CD</text><text x="831.3333333333334" y="171.0" font-family="Arial" font-size="12" fill="#5A6675">reconciles from Git</text><line x1="580.0" y1="212" x2="580.0" y2="244" stroke="#8693A4" stroke-width="2" marker-end="url(#ar)"/><rect x="502.7" y="217.0" width="154.6" height="20" rx="6" fill="#fff" stroke="#D6DBE2"/><text x="580.0" y="231.5" font-family="Arial" font-size="11.5" fill="#46505E" text-anchor="middle">git = source of truth</text><rect x="40" y="244" width="1080" height="134" rx="13" fill="rgba(35,47,62,0.05)" stroke="rgba(35,47,62,0.18)"/><text x="56" y="263" font-size="12" font-weight="700" fill="#232F3E" letter-spacing="0.6">AMAZON EKS</text><rect x="60" y="274" width="330" height="90" rx="12" fill="#FFFFFF" stroke="#8C4FFF" stroke-width="1.6"/><rect x="60" y="274" width="6" height="90" rx="3" fill="#8C4FFF"/><rect x="80" y="297.0" width="44" height="44" rx="9" fill="#8C4FFF"/><circle cx="102" cy="319.0" r="13" fill="none" stroke="#fff" stroke-width="2"/><circle cx="102" cy="319.0" r="13" fill="none" stroke="#fff" stroke-width="2" transform="scale(0.5 1)" transform-origin="102 319.0"/><line x1="89" y1="319.0" x2="115" y2="319.0" stroke="#fff" stroke-width="1.6"/><text x="126" y="316.0" font-family="Arial" font-size="15" font-weight="700" fill="#232F3E">Application Load Balancer</text><text x="126" y="335.0" font-family="Arial" font-size="12" fill="#5A6675">traffic flips blue ⇄ green</text><rect x="760" y="274" width="340" height="40" rx="12" fill="#FFFFFF" stroke="#326CE5" stroke-width="1.6"/><rect x="760" y="274" width="6" height="40" rx="3" fill="#326CE5"/><rect x="780" y="272.0" width="44" height="44" rx="9" fill="#326CE5"/><polygon points="802.0,279.0 813.7,284.6 816.6,297.3 808.5,307.5 795.5,307.5 787.4,297.3 790.3,284.6" fill="none" stroke="#fff" stroke-width="2"/><line x1="802" y1="294.0" x2="802.0" y2="283.0" stroke="#fff" stroke-width="1.3"/><line x1="802" y1="294.0" x2="810.6" y2="287.1" stroke="#fff" stroke-width="1.3"/><line x1="802" y1="294.0" x2="812.7" y2="296.4" stroke="#fff" stroke-width="1.3"/><line x1="802" y1="294.0" x2="806.8" y2="303.9" stroke="#fff" stroke-width="1.3"/><line x1="802" y1="294.0" x2="797.2" y2="303.9" stroke="#fff" stroke-width="1.3"/><line x1="802" y1="294.0" x2="791.3" y2="296.4" stroke="#fff" stroke-width="1.3"/><line x1="802" y1="294.0" x2="793.4" y2="287.1" stroke="#fff" stroke-width="1.3"/><circle cx="802" cy="294.0" r="4" fill="none" stroke="#fff" stroke-width="2"/><text x="826" y="291.0" font-family="Arial" font-size="15" font-weight="700" fill="#232F3E">Blue — live</text><text x="826" y="310.0" font-family="Arial" font-size="12" fill="#5A6675">current version</text><rect x="760" y="324" width="340" height="40" rx="12" fill="#FFFFFF" stroke="#326CE5" stroke-width="1.6"/><rect x="760" y="324" width="6" height="40" rx="3" fill="#326CE5"/><rect x="780" y="322.0" width="44" height="44" rx="9" fill="#326CE5"/><polygon points="802.0,329.0 813.7,334.6 816.6,347.3 808.5,357.5 795.5,357.5 787.4,347.3 790.3,334.6" fill="none" stroke="#fff" stroke-width="2"/><line x1="802" y1="344.0" x2="802.0" y2="333.0" stroke="#fff" stroke-width="1.3"/><line x1="802" y1="344.0" x2="810.6" y2="337.1" stroke="#fff" stroke-width="1.3"/><line x1="802" y1="344.0" x2="812.7" y2="346.4" stroke="#fff" stroke-width="1.3"/><line x1="802" y1="344.0" x2="806.8" y2="353.9" stroke="#fff" stroke-width="1.3"/><line x1="802" y1="344.0" x2="797.2" y2="353.9" stroke="#fff" stroke-width="1.3"/><line x1="802" y1="344.0" x2="791.3" y2="346.4" stroke="#fff" stroke-width="1.3"/><line x1="802" y1="344.0" x2="793.4" y2="337.1" stroke="#fff" stroke-width="1.3"/><circle cx="802" cy="344.0" r="4" fill="none" stroke="#fff" stroke-width="2"/><text x="826" y="341.0" font-family="Arial" font-size="15" font-weight="700" fill="#232F3E">Green — new</text><text x="826" y="360.0" font-family="Arial" font-size="12" fill="#5A6675">deployed, tested, no traffic</text><line x1="390" y1="306" x2="760" y2="294" stroke="#8693A4" stroke-width="2" marker-end="url(#ar)"/><line x1="390" y1="322" x2="760" y2="344" stroke="#8693A4" stroke-width="2" marker-end="url(#ar)"/><rect x="553.8" y="322.0" width="42.4" height="20" rx="6" fill="#fff" stroke="#D6DBE2"/><text x="575.0" y="336.5" font-family="Arial" font-size="11.5" fill="#46505E" text-anchor="middle">flip</text><line x1="580.0" y1="378" x2="580.0" y2="408" stroke="#8693A4" stroke-width="2" marker-end="url(#ar)"/><rect x="40" y="408" width="1080" height="96" rx="13" fill="rgba(6,172,56,0.05)" stroke="rgba(6,172,56,0.18)"/><text x="56" y="427" font-family="Arial" font-size="12" font-weight="700" fill="#06AC38" letter-spacing="0.6">OUTCOME</text><rect x="60.0" y="436" width="1040" height="52" rx="12" fill="#FFFFFF" stroke="#06AC38" stroke-width="1.6"/><rect x="60.0" y="436" width="6" height="52" rx="3" fill="#06AC38"/><rect x="80.0" y="440.0" width="44" height="44" rx="9" fill="#06AC38"/><path d="M102.0 448.0 l12 5 v8 c0 7 -6 11 -12 13 c-6 -2 -12 -6 -12 -13 v-8 z" fill="none" stroke="#fff" stroke-width="2"/><path d="M97.0 462.0 l4 4 7 -8" fill="none" stroke="#fff" stroke-width="2"/><text x="126.0" y="459.0" font-family="Arial" font-size="15" font-weight="700" fill="#232F3E">Zero-downtime releases · rollback 45 min → under 5 min</text><text x="126.0" y="478.0" font-family="Arial" font-size="12" fill="#5A6675">instant, reversible cutover</text></svg>