<svg xmlns="http://www.w3.org/2000/svg" viewBox="0 0 1160 592" font-family="Arial" role="img"><title>Kubernetes security baseline</title><defs><marker id="ar" markerWidth="11" markerHeight="11" refX="8" refY="4" orient="auto"><path d="M0 0 L9 4 L0 8 z" fill="#8693A4"/></marker></defs><rect x="2" y="2" width="1156" height="588" rx="18" fill="#FBFCFD" stroke="#E2E7EE" stroke-width="2"/><rect x="2" y="2" width="1156" height="64" rx="18" fill="#232F3E"/><rect x="2" y="40" width="1156" height="26" fill="#232F3E"/><text x="40" y="33" font-size="22" font-weight="700" fill="#fff">Kubernetes security baseline</text><text x="40" y="55" font-size="13.5" fill="#C7D0DB">PR then admission guardrails, dynamic secrets, IRSA, network policy</text><text x="1120" y="33" font-size="13" fill="#FF9900" text-anchor="end" font-weight="700">venkatesh-portfolio-website.vercel.app</text><rect x="40" y="86" width="1080" height="90" rx="13" fill="rgba(24,23,23,0.05)" stroke="rgba(24,23,23,0.18)"/><text x="56" y="105" font-family="Arial" font-size="12" font-weight="700" fill="#181717" letter-spacing="0.6">CHANGE</text><rect x="60.0" y="114" width="1040" height="46" rx="12" fill="#FFFFFF" stroke="#181717" stroke-width="1.6"/><rect x="60.0" y="114" width="6" height="46" rx="3" fill="#181717"/><rect x="80.0" y="115.0" width="44" height="44" rx="9" fill="#181717"/><text x="102.0" y="143.0" font-family="Arial" font-size="18" font-weight="700" fill="#fff" text-anchor="middle">GH</text><text x="126.0" y="134.0" font-family="Arial" font-size="15" font-weight="700" fill="#232F3E">Pull request</text><text x="126.0" y="153.0" font-family="Arial" font-size="12" fill="#5A6675">reviewed, logged, revertible</text><line x1="580.0" y1="176" x2="580.0" y2="206" stroke="#8693A4" stroke-width="2" marker-end="url(#ar)"/><rect x="515.9" y="180.0" width="128.2" height="20" rx="6" fill="#fff" stroke="#D6DBE2"/><text x="580.0" y="194.5" font-family="Arial" font-size="11.5" fill="#46505E" text-anchor="middle">admission control</text><rect x="40" y="206" width="1080" height="90" rx="13" fill="rgba(231,21,123,0.05)" stroke="rgba(231,21,123,0.18)"/><text x="56" y="225" font-family="Arial" font-size="12" font-weight="700" fill="#E7157B" letter-spacing="0.6">GUARDRAIL — FAIL BEFORE THE CLUSTER</text><rect x="60.0" y="234" width="1040" height="46" rx="12" fill="#FFFFFF" stroke="#E7157B" stroke-width="1.6"/><rect x="60.0" y="234" width="6" height="46" rx="3" fill="#E7157B"/><rect x="80.0" y="235.0" width="44" height="44" rx="9" fill="#E7157B"/><path d="M102.0 243.0 l12 5 v8 c0 7 -6 11 -12 13 c-6 -2 -12 -6 -12 -13 v-8 z" fill="none" stroke="#fff" stroke-width="2"/><path d="M97.0 257.0 l4 4 7 -8" fill="none" stroke="#fff" stroke-width="2"/><text x="126.0" y="254.0" font-family="Arial" font-size="15" font-weight="700" fill="#232F3E">OPA Gatekeeper / Kyverno</text><text x="126.0" y="273.0" font-family="Arial" font-size="12" fill="#5A6675">block :latest, privileged pods, missing limits</text><line x1="580.0" y1="296" x2="580.0" y2="326" stroke="#8693A4" stroke-width="2" marker-end="url(#ar)"/><rect x="40" y="326" width="1080" height="126" rx="13" fill="rgba(50,108,229,0.05)" stroke="rgba(50,108,229,0.18)"/><text x="56" y="345" font-family="Arial" font-size="12" font-weight="700" fill="#326CE5" letter-spacing="0.6">INSIDE THE CLUSTER</text><rect x="60.0" y="354" width="334.6666666666667" height="82" rx="12" fill="#FFFFFF" stroke="#000" stroke-width="1.6"/><rect x="60.0" y="354" width="6" height="82" rx="3" fill="#000"/><rect x="80.0" y="373.0" width="44" height="44" rx="9" fill="#000"/><text x="102.0" y="401.0" font-family="Arial" font-size="18" font-weight="700" fill="#fff" text-anchor="middle">V</text><text x="126.0" y="392.0" font-family="Arial" font-size="15" font-weight="700" fill="#232F3E">Vault + ESO</text><text x="126.0" y="411.0" font-family="Arial" font-size="12" fill="#5A6675">dynamic short-TTL secrets</text><rect x="412.6666666666667" y="354" width="334.6666666666667" height="82" rx="12" fill="#FFFFFF" stroke="#232F3E" stroke-width="1.6"/><rect x="412.6666666666667" y="354" width="6" height="82" rx="3" fill="#232F3E"/><rect x="432.6666666666667" y="373.0" width="44" height="44" rx="9" fill="#232F3E"/><text x="454.6666666666667" y="394.0" font-family="Arial" font-size="13" font-weight="700" fill="#fff" text-anchor="middle">aws</text><path d="M441.6666666666667 403.0 q13 7 26 0" stroke="#FF9900" stroke-width="2.4" fill="none" stroke-linecap="round"/><path d="M464.6666666666667 400.0 l4 2 -3 3 z" fill="#FF9900"/><text x="478.6666666666667" y="392.0" font-family="Arial" font-size="15" font-weight="700" fill="#232F3E">IRSA</text><text x="478.6666666666667" y="411.0" font-family="Arial" font-size="12" fill="#5A6675">per-pod least privilege</text><rect x="765.3333333333334" y="354" width="334.6666666666667" height="82" rx="12" fill="#FFFFFF" stroke="#326CE5" stroke-width="1.6"/><rect x="765.3333333333334" y="354" width="6" height="82" rx="3" fill="#326CE5"/><rect x="785.3333333333334" y="373.0" width="44" height="44" rx="9" fill="#326CE5"/><polygon points="807.3,380.0 819.1,385.6 822.0,398.3 813.8,408.5 800.8,408.5 792.7,398.3 795.6,385.6" fill="none" stroke="#fff" stroke-width="2"/><line x1="807.3333333333334" y1="395.0" x2="807.3" y2="384.0" stroke="#fff" stroke-width="1.3"/><line x1="807.3333333333334" y1="395.0" x2="815.9" y2="388.1" stroke="#fff" stroke-width="1.3"/><line x1="807.3333333333334" y1="395.0" x2="818.1" y2="397.4" stroke="#fff" stroke-width="1.3"/><line x1="807.3333333333334" y1="395.0" x2="812.1" y2="404.9" stroke="#fff" stroke-width="1.3"/><line x1="807.3333333333334" y1="395.0" x2="802.6" y2="404.9" stroke="#fff" stroke-width="1.3"/><line x1="807.3333333333334" y1="395.0" x2="796.6" y2="397.4" stroke="#fff" stroke-width="1.3"/><line x1="807.3333333333334" y1="395.0" x2="798.7" y2="388.1" stroke="#fff" stroke-width="1.3"/><circle cx="807.3333333333334" cy="395.0" r="4" fill="none" stroke="#fff" stroke-width="2"/><text x="831.3333333333334" y="392.0" font-family="Arial" font-size="15" font-weight="700" fill="#232F3E">NetworkPolicy</text><text x="831.3333333333334" y="411.0" font-family="Arial" font-size="12" fill="#5A6675">default-deny east-west</text><line x1="580.0" y1="452" x2="580.0" y2="482" stroke="#8693A4" stroke-width="2" marker-end="url(#ar)"/><rect x="40" y="482" width="1080" height="90" rx="13" fill="rgba(6,172,56,0.05)" stroke="rgba(6,172,56,0.18)"/><text x="56" y="501" font-family="Arial" font-size="12" font-weight="700" fill="#06AC38" letter-spacing="0.6">OUTCOME</text><rect x="60.0" y="510" width="1040" height="46" rx="12" fill="#FFFFFF" stroke="#06AC38" stroke-width="1.6"/><rect x="60.0" y="510" width="6" height="46" rx="3" fill="#06AC38"/><rect x="80.0" y="511.0" width="44" height="44" rx="9" fill="#06AC38"/><path d="M102.0 519.0 l12 5 v8 c0 7 -6 11 -12 13 c-6 -2 -12 -6 -12 -13 v-8 z" fill="none" stroke="#fff" stroke-width="2"/><path d="M97.0 533.0 l4 4 7 -8" fill="none" stroke="#fff" stroke-width="2"/><text x="126.0" y="538.0" font-family="Arial" font-size="15" font-weight="700" fill="#232F3E">Zero long-lived secrets · 100% pass policy · zero critical findings</text></svg>