<svg xmlns="http://www.w3.org/2000/svg" viewBox="0 0 1160 596" font-family="Arial" role="img"><title>Multi-account AWS Landing Zone</title><defs><marker id="ar" markerWidth="11" markerHeight="11" refX="8" refY="4" orient="auto"><path d="M0 0 L9 4 L0 8 z" fill="#8693A4"/></marker></defs><rect x="2" y="2" width="1156" height="592" rx="18" fill="#FBFCFD" stroke="#E2E7EE" stroke-width="2"/><rect x="2" y="2" width="1156" height="64" rx="18" fill="#232F3E"/><rect x="2" y="40" width="1156" height="26" fill="#232F3E"/><text x="40" y="33" font-size="22" font-weight="700" fill="#fff">Multi-account AWS Landing Zone</text><text x="40" y="55" font-size="13.5" fill="#C7D0DB">Org guardrails, per-env accounts, Transit Gateway, Terraform modules</text><text x="1120" y="33" font-size="13" fill="#FF9900" text-anchor="end" font-weight="700">venkatesh-portfolio-website.vercel.app</text><rect x="40" y="86" width="1080" height="108" rx="13" fill="rgba(231,21,123,0.05)" stroke="rgba(231,21,123,0.18)"/><text x="56" y="105" font-family="Arial" font-size="12" font-weight="700" fill="#E7157B" letter-spacing="0.6">AWS ORGANIZATION — GUARDRAILS</text><rect x="60.0" y="114" width="334.6666666666667" height="64" rx="12" fill="#FFFFFF" stroke="#E7157B" stroke-width="1.6"/><rect x="60.0" y="114" width="6" height="64" rx="3" fill="#E7157B"/><rect x="80.0" y="124.0" width="44" height="44" rx="9" fill="#E7157B"/><path d="M102.0 132.0 l12 5 v8 c0 7 -6 11 -12 13 c-6 -2 -12 -6 -12 -13 v-8 z" fill="none" stroke="#fff" stroke-width="2"/><path d="M97.0 146.0 l4 4 7 -8" fill="none" stroke="#fff" stroke-width="2"/><text x="126.0" y="143.0" font-family="Arial" font-size="15" font-weight="700" fill="#232F3E">Service Control Policies</text><text x="126.0" y="162.0" font-family="Arial" font-size="12" fill="#5A6675">block dangerous actions</text><rect x="412.6666666666667" y="114" width="334.6666666666667" height="64" rx="12" fill="#FFFFFF" stroke="#232F3E" stroke-width="1.6"/><rect x="412.6666666666667" y="114" width="6" height="64" rx="3" fill="#232F3E"/><rect x="432.6666666666667" y="124.0" width="44" height="44" rx="9" fill="#232F3E"/><text x="454.6666666666667" y="145.0" font-family="Arial" font-size="13" font-weight="700" fill="#fff" text-anchor="middle">aws</text><path d="M441.6666666666667 154.0 q13 7 26 0" stroke="#FF9900" stroke-width="2.4" fill="none" stroke-linecap="round"/><path d="M464.6666666666667 151.0 l4 2 -3 3 z" fill="#FF9900"/><text x="478.6666666666667" y="143.0" font-family="Arial" font-size="15" font-weight="700" fill="#232F3E">IAM Identity Center</text><text x="478.6666666666667" y="162.0" font-family="Arial" font-size="12" fill="#5A6675">one SSO front door</text><rect x="765.3333333333334" y="114" width="334.6666666666667" height="64" rx="12" fill="#FFFFFF" stroke="#8C4FFF" stroke-width="1.6"/><rect x="765.3333333333334" y="114" width="6" height="64" rx="3" fill="#8C4FFF"/><rect x="785.3333333333334" y="124.0" width="44" height="44" rx="9" fill="#8C4FFF"/><text x="807.3333333333334" y="152.0" font-family="Arial" font-size="18" font-weight="700" fill="#fff" text-anchor="middle">T</text><text x="831.3333333333334" y="143.0" font-family="Arial" font-size="15" font-weight="700" fill="#232F3E">Centralized CloudTrail</text><text x="831.3333333333334" y="162.0" font-family="Arial" font-size="12" fill="#5A6675">locked logging account</text><line x1="580.0" y1="194" x2="580.0" y2="220" stroke="#8693A4" stroke-width="2" marker-end="url(#ar)"/><rect x="40" y="220" width="1080" height="114" rx="13" fill="rgba(35,47,62,0.05)" stroke="rgba(35,47,62,0.18)"/><text x="56" y="239" font-family="Arial" font-size="12" font-weight="700" fill="#232F3E" letter-spacing="0.6">PER-ENVIRONMENT ACCOUNTS (BLAST-RADIUS WALLS)</text><rect x="60.0" y="248" width="246.5" height="70" rx="12" fill="#FFFFFF" stroke="#232F3E" stroke-width="1.6"/><rect x="60.0" y="248" width="6" height="70" rx="3" fill="#232F3E"/><rect x="80.0" y="261.0" width="44" height="44" rx="9" fill="#232F3E"/><text x="102.0" y="282.0" font-family="Arial" font-size="13" font-weight="700" fill="#fff" text-anchor="middle">aws</text><path d="M89.0 291.0 q13 7 26 0" stroke="#FF9900" stroke-width="2.4" fill="none" stroke-linecap="round"/><path d="M112.0 288.0 l4 2 -3 3 z" fill="#FF9900"/><text x="126.0" y="280.0" font-family="Arial" font-size="15" font-weight="700" fill="#232F3E">dev</text><text x="126.0" y="299.0" font-family="Arial" font-size="12" fill="#5A6675">isolated</text><rect x="324.5" y="248" width="246.5" height="70" rx="12" fill="#FFFFFF" stroke="#232F3E" stroke-width="1.6"/><rect x="324.5" y="248" width="6" height="70" rx="3" fill="#232F3E"/><rect x="344.5" y="261.0" width="44" height="44" rx="9" fill="#232F3E"/><text x="366.5" y="282.0" font-family="Arial" font-size="13" font-weight="700" fill="#fff" text-anchor="middle">aws</text><path d="M353.5 291.0 q13 7 26 0" stroke="#FF9900" stroke-width="2.4" fill="none" stroke-linecap="round"/><path d="M376.5 288.0 l4 2 -3 3 z" fill="#FF9900"/><text x="390.5" y="280.0" font-family="Arial" font-size="15" font-weight="700" fill="#232F3E">staging</text><text x="390.5" y="299.0" font-family="Arial" font-size="12" fill="#5A6675">isolated</text><rect x="589.0" y="248" width="246.5" height="70" rx="12" fill="#FFFFFF" stroke="#232F3E" stroke-width="1.6"/><rect x="589.0" y="248" width="6" height="70" rx="3" fill="#232F3E"/><rect x="609.0" y="261.0" width="44" height="44" rx="9" fill="#232F3E"/><text x="631.0" y="282.0" font-family="Arial" font-size="13" font-weight="700" fill="#fff" text-anchor="middle">aws</text><path d="M618.0 291.0 q13 7 26 0" stroke="#FF9900" stroke-width="2.4" fill="none" stroke-linecap="round"/><path d="M641.0 288.0 l4 2 -3 3 z" fill="#FF9900"/><text x="655.0" y="280.0" font-family="Arial" font-size="15" font-weight="700" fill="#232F3E">uat</text><text x="655.0" y="299.0" font-family="Arial" font-size="12" fill="#5A6675">isolated</text><rect x="853.5" y="248" width="246.5" height="70" rx="12" fill="#FFFFFF" stroke="#232F3E" stroke-width="1.6"/><rect x="853.5" y="248" width="6" height="70" rx="3" fill="#232F3E"/><rect x="873.5" y="261.0" width="44" height="44" rx="9" fill="#232F3E"/><text x="895.5" y="282.0" font-family="Arial" font-size="13" font-weight="700" fill="#fff" text-anchor="middle">aws</text><path d="M882.5 291.0 q13 7 26 0" stroke="#FF9900" stroke-width="2.4" fill="none" stroke-linecap="round"/><path d="M905.5 288.0 l4 2 -3 3 z" fill="#FF9900"/><text x="919.5" y="280.0" font-family="Arial" font-size="15" font-weight="700" fill="#232F3E">prod</text><text x="919.5" y="299.0" font-family="Arial" font-size="12" fill="#5A6675">isolated</text><line x1="580.0" y1="334" x2="580.0" y2="360" stroke="#8693A4" stroke-width="2" marker-end="url(#ar)"/><rect x="40" y="360" width="1080" height="98" rx="13" fill="rgba(140,79,255,0.05)" stroke="rgba(140,79,255,0.18)"/><text x="56" y="379" font-family="Arial" font-size="12" font-weight="700" fill="#8C4FFF" letter-spacing="0.6">SHARED NETWORKING</text><rect x="60.0" y="388" width="1040" height="54" rx="12" fill="#FFFFFF" stroke="#8C4FFF" stroke-width="1.6"/><rect x="60.0" y="388" width="6" height="54" rx="3" fill="#8C4FFF"/><rect x="80.0" y="393.0" width="44" height="44" rx="9" fill="#8C4FFF"/><circle cx="102.0" cy="415.0" r="13" fill="none" stroke="#fff" stroke-width="2"/><circle cx="102.0" cy="415.0" r="13" fill="none" stroke="#fff" stroke-width="2" transform="scale(0.5 1)" transform-origin="102.0 415.0"/><line x1="89.0" y1="415.0" x2="115.0" y2="415.0" stroke="#fff" stroke-width="1.6"/><text x="126.0" y="412.0" font-family="Arial" font-size="15" font-weight="700" fill="#232F3E">Transit Gateway</text><text x="126.0" y="431.0" font-family="Arial" font-size="12" fill="#5A6675">hub-and-spoke, explicit route tables</text><line x1="580.0" y1="458" x2="580.0" y2="484" stroke="#8693A4" stroke-width="2" marker-end="url(#ar)"/><rect x="40" y="484" width="1080" height="92" rx="13" fill="rgba(123,66,188,0.05)" stroke="rgba(123,66,188,0.18)"/><text x="56" y="503" font-family="Arial" font-size="12" font-weight="700" fill="#7B42BC" letter-spacing="0.6">BUILT AS REUSABLE TERRAFORM</text><rect x="60.0" y="512" width="1040" height="48" rx="12" fill="#FFFFFF" stroke="#7B42BC" stroke-width="1.6"/><rect x="60.0" y="512" width="6" height="48" rx="3" fill="#7B42BC"/><rect x="80.0" y="514.0" width="44" height="44" rx="9" fill="#7B42BC"/><polygon points="91.0,525.0 99.0,529.0 99.0,545.0 91.0,541.0" fill="#fff"/><polygon points="101.0,525.0 109.0,529.0 109.0,545.0 101.0,541.0" fill="#fff"/><polygon points="101.0,519.0 109.0,523.0 109.0,539.0 101.0,535.0" fill="#fff" opacity="0.92"/><text x="126.0" y="533.0" font-family="Arial" font-size="15" font-weight="700" fill="#232F3E">Terraform modules</text><text x="126.0" y="552.0" font-family="Arial" font-size="12" fill="#5A6675">provisioning a week → a day · zero config drift</text></svg>