<svg xmlns="http://www.w3.org/2000/svg" viewBox="0 0 1160 516" font-family="Arial" role="img"><title>AWS cost optimization — $8K/month, 32%</title><defs><marker id="ar" markerWidth="11" markerHeight="11" refX="8" refY="4" orient="auto"><path d="M0 0 L9 4 L0 8 z" fill="#8693A4"/></marker></defs><rect x="2" y="2" width="1156" height="512" rx="18" fill="#FBFCFD" stroke="#E2E7EE" stroke-width="2"/><rect x="2" y="2" width="1156" height="64" rx="18" fill="#232F3E"/><rect x="2" y="40" width="1156" height="26" fill="#232F3E"/><text x="40" y="33" font-size="22" font-weight="700" fill="#fff">AWS cost optimization — $8K/month, 32%</text><text x="40" y="55" font-size="13.5" fill="#C7D0DB">FinOps audit then Spot, Savings Plans, right-sizing, VPC endpoints</text><text x="1120" y="33" font-size="13" fill="#FF9900" text-anchor="end" font-weight="700">venkatesh-portfolio-website.vercel.app</text><rect x="40" y="86" width="1080" height="126" rx="13" fill="rgba(231,21,123,0.05)" stroke="rgba(231,21,123,0.18)"/><text x="56" y="105" font-family="Arial" font-size="12" font-weight="700" fill="#E7157B" letter-spacing="0.6">1 · VISIBILITY — COST AUDIT</text><rect x="60.0" y="114" width="334.6666666666667" height="82" rx="12" fill="#FFFFFF" stroke="#232F3E" stroke-width="1.6"/><rect x="60.0" y="114" width="6" height="82" rx="3" fill="#232F3E"/><rect x="80.0" y="133.0" width="44" height="44" rx="9" fill="#232F3E"/><text x="102.0" y="154.0" font-family="Arial" font-size="13" font-weight="700" fill="#fff" text-anchor="middle">aws</text><path d="M89.0 163.0 q13 7 26 0" stroke="#FF9900" stroke-width="2.4" fill="none" stroke-linecap="round"/><path d="M112.0 160.0 l4 2 -3 3 z" fill="#FF9900"/><text x="126.0" y="152.0" font-family="Arial" font-size="15" font-weight="700" fill="#232F3E">Cost Explorer</text><text x="126.0" y="171.0" font-family="Arial" font-size="12" fill="#5A6675">group by usage type</text><rect x="412.6666666666667" y="114" width="334.6666666666667" height="82" rx="12" fill="#FFFFFF" stroke="#8C4FFF" stroke-width="1.6"/><rect x="412.6666666666667" y="114" width="6" height="82" rx="3" fill="#8C4FFF"/><rect x="432.6666666666667" y="133.0" width="44" height="44" rx="9" fill="#8C4FFF"/><text x="454.6666666666667" y="161.0" font-family="Arial" font-size="18" font-weight="700" fill="#fff" text-anchor="middle">T</text><text x="478.6666666666667" y="152.0" font-family="Arial" font-size="15" font-weight="700" fill="#232F3E">CloudWatch</text><text x="478.6666666666667" y="171.0" font-family="Arial" font-size="12" fill="#5A6675">p95/p99 utilization</text><rect x="765.3333333333334" y="114" width="334.6666666666667" height="82" rx="12" fill="#FFFFFF" stroke="#232F3E" stroke-width="1.6"/><rect x="765.3333333333334" y="114" width="6" height="82" rx="3" fill="#232F3E"/><rect x="785.3333333333334" y="133.0" width="44" height="44" rx="9" fill="#232F3E"/><text x="807.3333333333334" y="154.0" font-family="Arial" font-size="13" font-weight="700" fill="#fff" text-anchor="middle">aws</text><path d="M794.3333333333334 163.0 q13 7 26 0" stroke="#FF9900" stroke-width="2.4" fill="none" stroke-linecap="round"/><path d="M817.3333333333334 160.0 l4 2 -3 3 z" fill="#FF9900"/><text x="831.3333333333334" y="152.0" font-family="Arial" font-size="15" font-weight="700" fill="#232F3E">Cost &amp; Usage Report</text><text x="831.3333333333334" y="171.0" font-family="Arial" font-size="12" fill="#5A6675">line-item drilldown</text><line x1="580.0" y1="212" x2="580.0" y2="242" stroke="#8693A4" stroke-width="2" marker-end="url(#ar)"/><rect x="525.8" y="216.0" width="108.39999999999999" height="20" rx="6" fill="#fff" stroke="#D6DBE2"/><text x="580.0" y="230.5" font-family="Arial" font-size="11.5" fill="#46505E" text-anchor="middle">find the waste</text><rect x="40" y="242" width="1080" height="126" rx="13" fill="rgba(255,153,0,0.05)" stroke="rgba(255,153,0,0.18)"/><text x="56" y="261" font-family="Arial" font-size="12" font-weight="700" fill="#FF9900" letter-spacing="0.6">2 · THREE LEVERS</text><rect x="60.0" y="270" width="334.6666666666667" height="82" rx="12" fill="#FFFFFF" stroke="#FF9900" stroke-width="1.6"/><rect x="60.0" y="270" width="6" height="82" rx="3" fill="#FF9900"/><rect x="80.0" y="289.0" width="44" height="44" rx="9" fill="#FF9900"/><text x="102.0" y="317.0" font-family="Arial" font-size="18" font-weight="700" fill="#fff" text-anchor="middle">K</text><text x="126.0" y="308.0" font-family="Arial" font-size="15" font-weight="700" fill="#232F3E">Spot + right-size</text><text x="126.0" y="327.0" font-family="Arial" font-size="12" fill="#5A6675">Karpenter bin-packing</text><rect x="412.6666666666667" y="270" width="334.6666666666667" height="82" rx="12" fill="#FFFFFF" stroke="#232F3E" stroke-width="1.6"/><rect x="412.6666666666667" y="270" width="6" height="82" rx="3" fill="#232F3E"/><rect x="432.6666666666667" y="289.0" width="44" height="44" rx="9" fill="#232F3E"/><text x="454.6666666666667" y="310.0" font-family="Arial" font-size="13" font-weight="700" fill="#fff" text-anchor="middle">aws</text><path d="M441.6666666666667 319.0 q13 7 26 0" stroke="#FF9900" stroke-width="2.4" fill="none" stroke-linecap="round"/><path d="M464.6666666666667 316.0 l4 2 -3 3 z" fill="#FF9900"/><text x="478.6666666666667" y="308.0" font-family="Arial" font-size="15" font-weight="700" fill="#232F3E">Savings Plans</text><text x="478.6666666666667" y="327.0" font-family="Arial" font-size="12" fill="#5A6675">cover the steady floor</text><rect x="765.3333333333334" y="270" width="334.6666666666667" height="82" rx="12" fill="#FFFFFF" stroke="#8C4FFF" stroke-width="1.6"/><rect x="765.3333333333334" y="270" width="6" height="82" rx="3" fill="#8C4FFF"/><rect x="785.3333333333334" y="289.0" width="44" height="44" rx="9" fill="#8C4FFF"/><circle cx="807.3333333333334" cy="311.0" r="13" fill="none" stroke="#fff" stroke-width="2"/><circle cx="807.3333333333334" cy="311.0" r="13" fill="none" stroke="#fff" stroke-width="2" transform="scale(0.5 1)" transform-origin="807.3333333333334 311.0"/><line x1="794.3333333333334" y1="311.0" x2="820.3333333333334" y2="311.0" stroke="#fff" stroke-width="1.6"/><text x="831.3333333333334" y="308.0" font-family="Arial" font-size="15" font-weight="700" fill="#232F3E">VPC endpoints</text><text x="831.3333333333334" y="327.0" font-family="Arial" font-size="12" fill="#5A6675">kill NAT data charges</text><line x1="580.0" y1="368" x2="580.0" y2="398" stroke="#8693A4" stroke-width="2" marker-end="url(#ar)"/><rect x="40" y="398" width="1080" height="98" rx="13" fill="rgba(6,172,56,0.05)" stroke="rgba(6,172,56,0.18)"/><text x="56" y="417" font-family="Arial" font-size="12" font-weight="700" fill="#06AC38" letter-spacing="0.6">RESULT</text><rect x="60.0" y="426" width="1040" height="54" rx="12" fill="#FFFFFF" stroke="#06AC38" stroke-width="1.6"/><rect x="60.0" y="426" width="6" height="54" rx="3" fill="#06AC38"/><rect x="80.0" y="431.0" width="44" height="44" rx="9" fill="#06AC38"/><path d="M102.0 439.0 l12 5 v8 c0 7 -6 11 -12 13 c-6 -2 -12 -6 -12 -13 v-8 z" fill="none" stroke="#fff" stroke-width="2"/><path d="M97.0 453.0 l4 4 7 -8" fill="none" stroke="#fff" stroke-width="2"/><text x="126.0" y="450.0" font-family="Arial" font-size="15" font-weight="700" fill="#232F3E">-$8,000 / month  ·  32% cut</text><text x="126.0" y="469.0" font-family="Arial" font-size="12" fill="#5A6675">zero workloads deleted · zero incidents</text></svg>