<svg xmlns="http://www.w3.org/2000/svg" viewBox="0 0 1160 664" font-family="Arial" role="img"><title>Observability stack that halved MTTR</title><defs><marker id="ar" markerWidth="11" markerHeight="11" refX="8" refY="4" orient="auto"><path d="M0 0 L9 4 L0 8 z" fill="#8693A4"/></marker></defs><rect x="2" y="2" width="1156" height="660" rx="18" fill="#FBFCFD" stroke="#E2E7EE" stroke-width="2"/><rect x="2" y="2" width="1156" height="64" rx="18" fill="#232F3E"/><rect x="2" y="40" width="1156" height="26" fill="#232F3E"/><text x="40" y="33" font-size="22" font-weight="700" fill="#fff">Observability stack that halved MTTR</text><text x="40" y="55" font-size="13.5" fill="#C7D0DB">Prometheus, Loki, ELK then Grafana, Alertmanager, PagerDuty</text><text x="1120" y="33" font-size="13" fill="#FF9900" text-anchor="end" font-weight="700">venkatesh-portfolio-website.vercel.app</text><rect x="40" y="86" width="1080" height="126" rx="13" fill="rgba(35,47,62,0.05)" stroke="rgba(35,47,62,0.18)"/><text x="56" y="105" font-family="Arial" font-size="12" font-weight="700" fill="#232F3E" letter-spacing="0.6">SOURCES</text><rect x="60.0" y="114" width="334.6666666666667" height="82" rx="12" fill="#FFFFFF" stroke="#232F3E" stroke-width="1.6"/><rect x="60.0" y="114" width="6" height="82" rx="3" fill="#232F3E"/><rect x="80.0" y="133.0" width="44" height="44" rx="9" fill="#232F3E"/><polygon points="102.0,140.0 113.7,145.6 116.6,158.3 108.5,168.5 95.5,168.5 87.4,158.3 90.3,145.6" fill="none" stroke="#fff" stroke-width="2"/><line x1="102.0" y1="155.0" x2="102.0" y2="144.0" stroke="#fff" stroke-width="1.3"/><line x1="102.0" y1="155.0" x2="110.6" y2="148.1" stroke="#fff" stroke-width="1.3"/><line x1="102.0" y1="155.0" x2="112.7" y2="157.4" stroke="#fff" stroke-width="1.3"/><line x1="102.0" y1="155.0" x2="106.8" y2="164.9" stroke="#fff" stroke-width="1.3"/><line x1="102.0" y1="155.0" x2="97.2" y2="164.9" stroke="#fff" stroke-width="1.3"/><line x1="102.0" y1="155.0" x2="91.3" y2="157.4" stroke="#fff" stroke-width="1.3"/><line x1="102.0" y1="155.0" x2="93.4" y2="148.1" stroke="#fff" stroke-width="1.3"/><circle cx="102.0" cy="155.0" r="4" fill="none" stroke="#fff" stroke-width="2"/><text x="126.0" y="152.0" font-family="Arial" font-size="15" font-weight="700" fill="#232F3E">EKS workloads</text><text x="126.0" y="171.0" font-family="Arial" font-size="12" fill="#5A6675">20+ microservices</text><rect x="412.6666666666667" y="114" width="334.6666666666667" height="82" rx="12" fill="#FFFFFF" stroke="#2E73B8" stroke-width="1.6"/><rect x="412.6666666666667" y="114" width="6" height="82" rx="3" fill="#2E73B8"/><rect x="432.6666666666667" y="133.0" width="44" height="44" rx="9" fill="#2E73B8"/><ellipse cx="454.6666666666667" cy="148.0" rx="12" ry="4.5" fill="none" stroke="#fff" stroke-width="2"/><path d="M442.6666666666667 148.0 v14 a12 4.5 0 0 0 24 0 v-14" fill="none" stroke="#fff" stroke-width="2"/><path d="M442.6666666666667 155.0 a12 4.5 0 0 0 24 0" fill="none" stroke="#fff" stroke-width="2"/><text x="478.6666666666667" y="152.0" font-family="Arial" font-size="15" font-weight="700" fill="#232F3E">RDS / Aurora</text><text x="478.6666666666667" y="171.0" font-family="Arial" font-size="12" fill="#5A6675">db metrics</text><rect x="765.3333333333334" y="114" width="334.6666666666667" height="82" rx="12" fill="#FFFFFF" stroke="#8C4FFF" stroke-width="1.6"/><rect x="765.3333333333334" y="114" width="6" height="82" rx="3" fill="#8C4FFF"/><rect x="785.3333333333334" y="133.0" width="44" height="44" rx="9" fill="#8C4FFF"/><circle cx="807.3333333333334" cy="155.0" r="13" fill="none" stroke="#fff" stroke-width="2"/><circle cx="807.3333333333334" cy="155.0" r="13" fill="none" stroke="#fff" stroke-width="2" transform="scale(0.5 1)" transform-origin="807.3333333333334 155.0"/><line x1="794.3333333333334" y1="155.0" x2="820.3333333333334" y2="155.0" stroke="#fff" stroke-width="1.6"/><text x="831.3333333333334" y="152.0" font-family="Arial" font-size="15" font-weight="700" fill="#232F3E">Infra / nodes</text><text x="831.3333333333334" y="171.0" font-family="Arial" font-size="12" fill="#5A6675">host metrics</text><line x1="580.0" y1="212" x2="580.0" y2="242" stroke="#8693A4" stroke-width="2" marker-end="url(#ar)"/><rect x="529.1" y="216.0" width="101.8" height="20" rx="6" fill="#fff" stroke="#D6DBE2"/><text x="580.0" y="230.5" font-family="Arial" font-size="11.5" fill="#46505E" text-anchor="middle">scrape &amp; ship</text><rect x="40" y="242" width="1080" height="126" rx="13" fill="rgba(230,82,44,0.05)" stroke="rgba(230,82,44,0.18)"/><text x="56" y="261" font-family="Arial" font-size="12" font-weight="700" fill="#E6522C" letter-spacing="0.6">COLLECT</text><rect x="60.0" y="270" width="334.6666666666667" height="82" rx="12" fill="#FFFFFF" stroke="#E6522C" stroke-width="1.6"/><rect x="60.0" y="270" width="6" height="82" rx="3" fill="#E6522C"/><rect x="80.0" y="289.0" width="44" height="44" rx="9" fill="#E6522C"/><path d="M102.0 297.0 C112.0 307.0 110.0 321.0 102.0 323.0 C94.0 321.0 92.0 309.0 99.0 304.0 C99.0 310.0 103.0 311.0 102.0 297.0 Z" fill="#fff"/><text x="126.0" y="308.0" font-family="Arial" font-size="15" font-weight="700" fill="#232F3E">Prometheus</text><text x="126.0" y="327.0" font-family="Arial" font-size="12" fill="#5A6675">metrics + alert rules</text><rect x="412.6666666666667" y="270" width="334.6666666666667" height="82" rx="12" fill="#FFFFFF" stroke="#F5A623" stroke-width="1.6"/><rect x="412.6666666666667" y="270" width="6" height="82" rx="3" fill="#F5A623"/><rect x="432.6666666666667" y="289.0" width="44" height="44" rx="9" fill="#F5A623"/><text x="454.6666666666667" y="317.0" font-family="Arial" font-size="18" font-weight="700" fill="#fff" text-anchor="middle">L</text><text x="478.6666666666667" y="308.0" font-family="Arial" font-size="15" font-weight="700" fill="#232F3E">Loki</text><text x="478.6666666666667" y="327.0" font-family="Arial" font-size="12" fill="#5A6675">logs, one query surface</text><rect x="765.3333333333334" y="270" width="334.6666666666667" height="82" rx="12" fill="#FFFFFF" stroke="#8C4FFF" stroke-width="1.6"/><rect x="765.3333333333334" y="270" width="6" height="82" rx="3" fill="#8C4FFF"/><rect x="785.3333333333334" y="289.0" width="44" height="44" rx="9" fill="#8C4FFF"/><text x="807.3333333333334" y="317.0" font-family="Arial" font-size="18" font-weight="700" fill="#fff" text-anchor="middle">T</text><text x="831.3333333333334" y="308.0" font-family="Arial" font-size="15" font-weight="700" fill="#232F3E">ELK</text><text x="831.3333333333334" y="327.0" font-family="Arial" font-size="12" fill="#5A6675">search &amp; correlation</text><line x1="580.0" y1="368" x2="580.0" y2="398" stroke="#8693A4" stroke-width="2" marker-end="url(#ar)"/><rect x="40" y="398" width="1080" height="126" rx="13" fill="rgba(244,104,0,0.05)" stroke="rgba(244,104,0,0.18)"/><text x="56" y="417" font-family="Arial" font-size="12" font-weight="700" fill="#F46800" letter-spacing="0.6">SEE &amp; ACT</text><rect x="60.0" y="426" width="334.6666666666667" height="82" rx="12" fill="#FFFFFF" stroke="#F46800" stroke-width="1.6"/><rect x="60.0" y="426" width="6" height="82" rx="3" fill="#F46800"/><rect x="80.0" y="445.0" width="44" height="44" rx="9" fill="#F46800"/><circle cx="102.0" cy="467.0" r="13" fill="none" stroke="#fff" stroke-width="2"/><circle cx="102.0" cy="467.0" r="6" fill="none" stroke="#fff" stroke-width="2"/><circle cx="102.0" cy="454.0" r="2.6" fill="#fff"/><text x="126.0" y="464.0" font-family="Arial" font-size="15" font-weight="700" fill="#232F3E">Grafana</text><text x="126.0" y="483.0" font-family="Arial" font-size="12" fill="#5A6675">RED dashboards</text><rect x="412.6666666666667" y="426" width="334.6666666666667" height="82" rx="12" fill="#FFFFFF" stroke="#E6522C" stroke-width="1.6"/><rect x="412.6666666666667" y="426" width="6" height="82" rx="3" fill="#E6522C"/><rect x="432.6666666666667" y="445.0" width="44" height="44" rx="9" fill="#E6522C"/><path d="M454.6666666666667 453.0 C464.6666666666667 463.0 462.6666666666667 477.0 454.6666666666667 479.0 C446.6666666666667 477.0 444.6666666666667 465.0 451.6666666666667 460.0 C451.6666666666667 466.0 455.6666666666667 467.0 454.6666666666667 453.0 Z" fill="#fff"/><text x="478.6666666666667" y="464.0" font-family="Arial" font-size="15" font-weight="700" fill="#232F3E">Alertmanager</text><text x="478.6666666666667" y="483.0" font-family="Arial" font-size="12" fill="#5A6675">symptom-based alerts</text><rect x="765.3333333333334" y="426" width="334.6666666666667" height="82" rx="12" fill="#FFFFFF" stroke="#06AC38" stroke-width="1.6"/><rect x="765.3333333333334" y="426" width="6" height="82" rx="3" fill="#06AC38"/><rect x="785.3333333333334" y="445.0" width="44" height="44" rx="9" fill="#06AC38"/><path d="M807.3333333333334 453.0 l12 5 v8 c0 7 -6 11 -12 13 c-6 -2 -12 -6 -12 -13 v-8 z" fill="none" stroke="#fff" stroke-width="2"/><path d="M802.3333333333334 467.0 l4 4 7 -8" fill="none" stroke="#fff" stroke-width="2"/><text x="831.3333333333334" y="464.0" font-family="Arial" font-size="15" font-weight="700" fill="#232F3E">PagerDuty</text><text x="831.3333333333334" y="483.0" font-family="Arial" font-size="12" fill="#5A6675">route + runbook link</text><line x1="580.0" y1="524" x2="580.0" y2="554" stroke="#8693A4" stroke-width="2" marker-end="url(#ar)"/><rect x="40" y="554" width="1080" height="90" rx="13" fill="rgba(6,172,56,0.05)" stroke="rgba(6,172,56,0.18)"/><text x="56" y="573" font-family="Arial" font-size="12" font-weight="700" fill="#06AC38" letter-spacing="0.6">OUTCOME</text><rect x="60.0" y="582" width="1040" height="46" rx="12" fill="#FFFFFF" stroke="#06AC38" stroke-width="1.6"/><rect x="60.0" y="582" width="6" height="46" rx="3" fill="#06AC38"/><rect x="80.0" y="583.0" width="44" height="44" rx="9" fill="#06AC38"/><path d="M102.0 591.0 l12 5 v8 c0 7 -6 11 -12 13 c-6 -2 -12 -6 -12 -13 v-8 z" fill="none" stroke="#fff" stroke-width="2"/><path d="M97.0 605.0 l4 4 7 -8" fill="none" stroke="#fff" stroke-width="2"/><text x="126.0" y="610.0" font-family="Arial" font-size="15" font-weight="700" fill="#232F3E">MTTR cut 50% · 95% of incidents caught before customers noticed</text></svg>