<svg xmlns="http://www.w3.org/2000/svg" viewBox="0 0 1160 598" font-family="Arial" role="img"><title>EKS autoscaling with Karpenter</title><defs><marker id="ar" markerWidth="11" markerHeight="11" refX="8" refY="4" orient="auto"><path d="M0 0 L9 4 L0 8 z" fill="#8693A4"/></marker></defs><rect x="2" y="2" width="1156" height="594" rx="18" fill="#FBFCFD" stroke="#E2E7EE" stroke-width="2"/><rect x="2" y="2" width="1156" height="64" rx="18" fill="#232F3E"/><rect x="2" y="40" width="1156" height="26" fill="#232F3E"/><text x="40" y="33" font-size="22" font-weight="700" fill="#fff">EKS autoscaling with Karpenter</text><text x="40" y="55" font-size="13.5" fill="#C7D0DB">Pending pods then Karpenter, cheapest right-sized Spot / On-Demand</text><text x="1120" y="33" font-size="13" fill="#FF9900" text-anchor="end" font-weight="700">venkatesh-portfolio-website.vercel.app</text><rect x="40" y="86" width="1080" height="90" rx="13" fill="rgba(50,108,229,0.05)" stroke="rgba(50,108,229,0.18)"/><text x="56" y="105" font-family="Arial" font-size="12" font-weight="700" fill="#326CE5" letter-spacing="0.6">PENDING PODS</text><rect x="60.0" y="114" width="1040" height="46" rx="12" fill="#FFFFFF" stroke="#326CE5" stroke-width="1.6"/><rect x="60.0" y="114" width="6" height="46" rx="3" fill="#326CE5"/><rect x="80.0" y="115.0" width="44" height="44" rx="9" fill="#326CE5"/><polygon points="102.0,122.0 113.7,127.6 116.6,140.3 108.5,150.5 95.5,150.5 87.4,140.3 90.3,127.6" fill="none" stroke="#fff" stroke-width="2"/><line x1="102.0" y1="137.0" x2="102.0" y2="126.0" stroke="#fff" stroke-width="1.3"/><line x1="102.0" y1="137.0" x2="110.6" y2="130.1" stroke="#fff" stroke-width="1.3"/><line x1="102.0" y1="137.0" x2="112.7" y2="139.4" stroke="#fff" stroke-width="1.3"/><line x1="102.0" y1="137.0" x2="106.8" y2="146.9" stroke="#fff" stroke-width="1.3"/><line x1="102.0" y1="137.0" x2="97.2" y2="146.9" stroke="#fff" stroke-width="1.3"/><line x1="102.0" y1="137.0" x2="91.3" y2="139.4" stroke="#fff" stroke-width="1.3"/><line x1="102.0" y1="137.0" x2="93.4" y2="130.1" stroke="#fff" stroke-width="1.3"/><circle cx="102.0" cy="137.0" r="4" fill="none" stroke="#fff" stroke-width="2"/><text x="126.0" y="134.0" font-family="Arial" font-size="15" font-weight="700" fill="#232F3E">Unschedulable pods</text><text x="126.0" y="153.0" font-family="Arial" font-size="12" fill="#5A6675">HPA / KEDA added replicas — need nodes</text><line x1="580.0" y1="176" x2="580.0" y2="206" stroke="#8693A4" stroke-width="2" marker-end="url(#ar)"/><rect x="506.0" y="180.0" width="148.0" height="20" rx="6" fill="#fff" stroke="#D6DBE2"/><text x="580.0" y="194.5" font-family="Arial" font-size="11.5" fill="#46505E" text-anchor="middle">watches pending pods</text><rect x="40" y="206" width="1080" height="90" rx="13" fill="rgba(255,153,0,0.05)" stroke="rgba(255,153,0,0.18)"/><text x="56" y="225" font-family="Arial" font-size="12" font-weight="700" fill="#FF9900" letter-spacing="0.6">KARPENTER</text><rect x="60.0" y="234" width="1040" height="46" rx="12" fill="#FFFFFF" stroke="#FF9900" stroke-width="1.6"/><rect x="60.0" y="234" width="6" height="46" rx="3" fill="#FF9900"/><rect x="80.0" y="235.0" width="44" height="44" rx="9" fill="#FF9900"/><text x="102.0" y="263.0" font-family="Arial" font-size="18" font-weight="700" fill="#fff" text-anchor="middle">K</text><text x="126.0" y="254.0" font-family="Arial" font-size="15" font-weight="700" fill="#232F3E">Karpenter</text><text x="126.0" y="273.0" font-family="Arial" font-size="12" fill="#5A6675">picks the cheapest node that fits, right now</text><line x1="580.0" y1="296" x2="580.0" y2="326" stroke="#8693A4" stroke-width="2" marker-end="url(#ar)"/><rect x="532.4" y="300.0" width="95.19999999999999" height="20" rx="6" fill="#fff" stroke="#D6DBE2"/><text x="580.0" y="314.5" font-family="Arial" font-size="11.5" fill="#46505E" text-anchor="middle">just-in-time</text><rect x="40" y="326" width="1080" height="126" rx="13" fill="rgba(35,47,62,0.05)" stroke="rgba(35,47,62,0.18)"/><text x="56" y="345" font-family="Arial" font-size="12" font-weight="700" fill="#232F3E" letter-spacing="0.6">RIGHT-SIZED NODES</text><rect x="60.0" y="354" width="334.6666666666667" height="82" rx="12" fill="#FFFFFF" stroke="#FF9900" stroke-width="1.6"/><rect x="60.0" y="354" width="6" height="82" rx="3" fill="#FF9900"/><rect x="80.0" y="373.0" width="44" height="44" rx="9" fill="#FF9900"/><text x="102.0" y="401.0" font-family="Arial" font-size="18" font-weight="700" fill="#fff" text-anchor="middle">K</text><text x="126.0" y="392.0" font-family="Arial" font-size="15" font-weight="700" fill="#232F3E">Spot g6 / m7</text><text x="126.0" y="411.0" font-family="Arial" font-size="12" fill="#5A6675">batch &amp; stateless</text><rect x="412.6666666666667" y="354" width="334.6666666666667" height="82" rx="12" fill="#FFFFFF" stroke="#232F3E" stroke-width="1.6"/><rect x="412.6666666666667" y="354" width="6" height="82" rx="3" fill="#232F3E"/><rect x="432.6666666666667" y="373.0" width="44" height="44" rx="9" fill="#232F3E"/><text x="454.6666666666667" y="394.0" font-family="Arial" font-size="13" font-weight="700" fill="#fff" text-anchor="middle">aws</text><path d="M441.6666666666667 403.0 q13 7 26 0" stroke="#FF9900" stroke-width="2.4" fill="none" stroke-linecap="round"/><path d="M464.6666666666667 400.0 l4 2 -3 3 z" fill="#FF9900"/><text x="478.6666666666667" y="392.0" font-family="Arial" font-size="15" font-weight="700" fill="#232F3E">On-Demand</text><text x="478.6666666666667" y="411.0" font-family="Arial" font-size="12" fill="#5A6675">interactive / can't blink</text><rect x="765.3333333333334" y="354" width="334.6666666666667" height="82" rx="12" fill="#FFFFFF" stroke="#326CE5" stroke-width="1.6"/><rect x="765.3333333333334" y="354" width="6" height="82" rx="3" fill="#326CE5"/><rect x="785.3333333333334" y="373.0" width="44" height="44" rx="9" fill="#326CE5"/><polygon points="807.3,380.0 819.1,385.6 822.0,398.3 813.8,408.5 800.8,408.5 792.7,398.3 795.6,385.6" fill="none" stroke="#fff" stroke-width="2"/><line x1="807.3333333333334" y1="395.0" x2="807.3" y2="384.0" stroke="#fff" stroke-width="1.3"/><line x1="807.3333333333334" y1="395.0" x2="815.9" y2="388.1" stroke="#fff" stroke-width="1.3"/><line x1="807.3333333333334" y1="395.0" x2="818.1" y2="397.4" stroke="#fff" stroke-width="1.3"/><line x1="807.3333333333334" y1="395.0" x2="812.1" y2="404.9" stroke="#fff" stroke-width="1.3"/><line x1="807.3333333333334" y1="395.0" x2="802.6" y2="404.9" stroke="#fff" stroke-width="1.3"/><line x1="807.3333333333334" y1="395.0" x2="796.6" y2="397.4" stroke="#fff" stroke-width="1.3"/><line x1="807.3333333333334" y1="395.0" x2="798.7" y2="388.1" stroke="#fff" stroke-width="1.3"/><circle cx="807.3333333333334" cy="395.0" r="4" fill="none" stroke="#fff" stroke-width="2"/><text x="831.3333333333334" y="392.0" font-family="Arial" font-size="15" font-weight="700" fill="#232F3E">Consolidation</text><text x="831.3333333333334" y="411.0" font-family="Arial" font-size="12" fill="#5A6675">bin-pack, scale down idle</text><line x1="580.0" y1="452" x2="580.0" y2="482" stroke="#8693A4" stroke-width="2" marker-end="url(#ar)"/><rect x="40" y="482" width="1080" height="96" rx="13" fill="rgba(6,172,56,0.05)" stroke="rgba(6,172,56,0.18)"/><text x="56" y="501" font-family="Arial" font-size="12" font-weight="700" fill="#06AC38" letter-spacing="0.6">RESULT</text><rect x="60.0" y="510" width="1040" height="52" rx="12" fill="#FFFFFF" stroke="#06AC38" stroke-width="1.6"/><rect x="60.0" y="510" width="6" height="52" rx="3" fill="#06AC38"/><rect x="80.0" y="514.0" width="44" height="44" rx="9" fill="#06AC38"/><path d="M102.0 522.0 l12 5 v8 c0 7 -6 11 -12 13 c-6 -2 -12 -6 -12 -13 v-8 z" fill="none" stroke="#fff" stroke-width="2"/><path d="M97.0 536.0 l4 4 7 -8" fill="none" stroke="#fff" stroke-width="2"/><text x="126.0" y="533.0" font-family="Arial" font-size="15" font-weight="700" fill="#232F3E">Tighter bin-packing · more Spot · lower compute bill</text><text x="126.0" y="552.0" font-family="Arial" font-size="12" fill="#5A6675">no node-group babysitting</text></svg>